<?xml version="1.0" encoding="utf-8"?>
<!-- Generator: Adobe Illustrator 16.0.0, SVG Export Plug-In . SVG Version: 6.00 Build 0)  -->
<!DOCTYPE svg PUBLIC "-//W3C//DTD SVG 1.1//EN" "http://www.w3.org/Graphics/SVG/1.1/DTD/svg11.dtd">
<svg version="1.1" xmlns="http://www.w3.org/2000/svg" xmlns:xlink="http://www.w3.org/1999/xlink" x="0px" y="0px"
	 width="595.281px" height="841.891px" viewBox="0 0 595.281 841.891" enable-background="new 0 0 595.281 841.891"
	 xml:space="preserve">
<g id="svg2" inkscape:version="0.48.0 r9654" sodipodi:docname="firefox-logo-focus.svg" xmlns:dc="http://purl.org/dc/elements/1.1/" xmlns:cc="http://creativecommons.org/ns#" xmlns:rdf="http://www.w3.org/1999/02/22-rdf-syntax-ns#" xmlns:svg="http://www.w3.org/2000/svg" xmlns:sodipodi="http://sodipodi.sourceforge.net/DTD/sodipodi-0.dtd" xmlns:inkscape="http://www.inkscape.org/namespaces/inkscape">
	<path id="path71" inkscape:connector-curvature="0" fill="#3F9276" d="M297.788,721.279c153.126,0,277.169-124.717,277.169-278.48
		c0-153.763-124.043-278.48-277.019-278.48c-152.977,0-277.02,124.679-277.02,278.462
		C20.605,596.713,144.811,721.279,297.788,721.279z"/>
	
		<radialGradient id="path73_1_" cx="-7861.7319" cy="7725.6641" r="650.7792" fx="-7902.4976" fy="7725.6641" gradientTransform="matrix(0.768 0 0 -0.7618 6319.355 6475.2021)" gradientUnits="userSpaceOnUse">
		<stop  offset="0.03" style="stop-color:#17B280;stop-opacity:0"/>
		<stop  offset="0.15" style="stop-color:#17B280;stop-opacity:0.01"/>
		<stop  offset="0.26" style="stop-color:#17B280;stop-opacity:0.06"/>
		<stop  offset="0.37" style="stop-color:#17B280;stop-opacity:0.13"/>
		<stop  offset="0.48" style="stop-color:#17B280;stop-opacity:0.24"/>
		<stop  offset="0.59" style="stop-color:#17B280;stop-opacity:0.37"/>
		<stop  offset="0.69" style="stop-color:#17B280;stop-opacity:0.54"/>
		<stop  offset="0.8" style="stop-color:#17B280;stop-opacity:0.74"/>
		<stop  offset="0.9" style="stop-color:#17B280;stop-opacity:0.96"/>
		<stop  offset="0.92" style="stop-color:#17B280"/>
	</radialGradient>
	<path id="path73" inkscape:connector-curvature="0" fill="url(#path73_1_)" d="M300.218,721.279
		c153.127,0,277.17-124.717,277.17-278.48s-124.043-278.481-277.02-278.481c-152.977,0-277.02,124.68-277.02,278.461
		C23.037,596.713,147.242,721.279,300.218,721.279L300.218,721.279z"/>
	
		<radialGradient id="path75_1_" cx="-7584.8574" cy="8881.543" r="650.782" fx="-7625.623" fy="8881.543" gradientTransform="matrix(0.768 0 0 -0.7618 6218.0112 7011.5928)" gradientUnits="userSpaceOnUse">
		<stop  offset="0.03" style="stop-color:#7BF0B6"/>
		<stop  offset="0.11" style="stop-color:#7BF0B6;stop-opacity:0.81"/>
		<stop  offset="0.25" style="stop-color:#7BF0B6;stop-opacity:0.47"/>
		<stop  offset="0.36" style="stop-color:#7BF0B6;stop-opacity:0.22"/>
		<stop  offset="0.45" style="stop-color:#7BF0B6;stop-opacity:0.06"/>
		<stop  offset="0.49" style="stop-color:#7BF0B6;stop-opacity:0"/>
	</radialGradient>
	<path id="path75" inkscape:connector-curvature="0" fill="url(#path75_1_)" d="M297.852,721.48
		c153.126,0,277.169-124.717,277.169-278.48c0-153.763-124.043-278.48-277.02-278.48S20.98,289.199,20.98,442.981
		C20.668,596.914,144.874,721.48,297.852,721.48z"/>
	
		<linearGradient id="path79_1_" gradientUnits="userSpaceOnUse" x1="810.3672" y1="179.2739" x2="810.3672" y2="179.2739" gradientTransform="matrix(0.6244 0 0 -0.6244 0.1857 727.4708)">
		<stop  offset="0" style="stop-color:#000F43;stop-opacity:0.3"/>
		<stop  offset="0.35" style="stop-color:#00165A;stop-opacity:0.17"/>
		<stop  offset="1" style="stop-color:#002079;stop-opacity:0"/>
	</linearGradient>
	<path id="path79" inkscape:connector-curvature="0" opacity="0.4" fill="url(#path79_1_)" enable-background="new    " d="
		M506.179,615.532"/>
	
		<linearGradient id="path81_1_" gradientUnits="userSpaceOnUse" x1="810.3672" y1="179.2739" x2="810.3672" y2="179.2739" gradientTransform="matrix(0.6244 0 0 -0.6244 0.1857 727.4708)">
		<stop  offset="0" style="stop-color:#000F43;stop-opacity:0.4"/>
		<stop  offset="0.48" style="stop-color:#001962;stop-opacity:0.17"/>
		<stop  offset="1" style="stop-color:#002079;stop-opacity:0"/>
	</linearGradient>
	<path id="path81" inkscape:connector-curvature="0" opacity="0.4" fill="url(#path81_1_)" enable-background="new    " d="
		M506.179,615.532"/>
	
		<radialGradient id="path83_1_" cx="535.1367" cy="585.1699" r="654.2346" gradientTransform="matrix(0.6244 0 0 -0.6244 0.1857 727.4708)" gradientUnits="userSpaceOnUse">
		<stop  offset="0.78" style="stop-color:#FFFFFF"/>
		<stop  offset="1" style="stop-color:#FFFFFF"/>
	</radialGradient>
	<path id="path83" inkscape:connector-curvature="0" fill="url(#path83_1_)" d="M559.572,549.908
		c0.655-1.087,1.301-2.176,1.93-3.267l0.08-0.144c0.625-1.081,1.248-2.167,1.873-3.247l0.082-0.15
		c0.623-1.079,1.211-2.166,1.805-3.259l0.105-0.192c0.586-1.081,1.162-2.154,1.729-3.234l0.105-0.2
		c0.569-1.082,1.127-2.162,1.674-3.24l0.117-0.236c0.543-1.074,1.073-2.148,1.604-3.229l0.131-0.269
		c0.519-1.067,1.037-2.143,1.543-3.216l0.138-0.301c0.5-1.066,0.992-2.129,1.475-3.195l0.148-0.331
		c0.475-1.055,0.944-2.112,1.412-3.18l0.161-0.373c0.455-1.05,0.898-2.1,1.343-3.153l0.17-0.418c0.418-1.043,0.83-2.086,1.248-3.122
		l0.174-0.443c0.42-1.043,0.824-2.08,1.219-3.122l0.182-0.48c0.396-1.027,0.777-2.068,1.148-3.121l0.188-0.525
		c0.365-1.022,0.729-2.05,1.086-3.078l0.188-0.549c0.35-1.021,0.693-2.042,1.029-3.065l0.188-0.624
		c0.332-1.013,0.625-2.023,0.969-3.041l0.188-0.624c0.305-1.006,0.623-2.012,0.904-3.022l0.188-0.668
		c0.287-0.999,0.574-1.998,0.85-2.997c0.068-0.243,0.132-0.487,0.193-0.737c0.269-0.979,0.531-1.96,0.781-2.945
		c0.068-0.264,0.131-0.525,0.199-0.793c0.244-0.968,0.485-1.937,0.725-2.91c0.068-0.281,0.131-0.563,0.193-0.843
		c0.225-0.955,0.448-1.917,0.662-2.872l0.188-0.881c0.205-0.949,0.412-1.873,0.623-2.854c0.063-0.306,0.119-0.624,0.182-0.918
		c0.188-0.942,0.381-1.873,0.558-2.834c0.063-0.318,0.11-0.625,0.174-0.962c0.176-0.931,0.344-1.873,0.506-2.804l0.168-1.013
		c0.156-0.924,0.307-1.873,0.451-2.766c0.055-0.35,0.1-0.706,0.154-1.056c0.139-0.911,0.274-1.823,0.399-2.741
		c0.051-0.374,0.094-0.749,0.146-1.123c0.116-0.895,0.235-1.792,0.342-2.691c0.051-0.394,0.088-0.787,0.133-1.181
		c0.1-0.88,0.205-1.761,0.299-2.647c0.043-0.418,0.082-0.836,0.119-1.247c0.086-0.862,0.168-1.725,0.242-2.586
		c0.039-0.432,0.07-0.867,0.102-1.299c0.068-0.854,0.144-1.705,0.199-2.561c0.031-0.449,0.058-0.898,0.08-1.35
		c0.057-0.843,0.113-1.686,0.156-2.496c0-0.47,0.045-0.943,0.063-1.411c0.037-0.824,0.082-1.648,0.113-2.498
		c0-0.487,0-0.975,0.043-1.461c0-0.818,0.057-1.63,0.068-2.447v-7.83c0-0.562,0-1.124-0.037-1.686c0-0.755,0-1.505-0.049-2.267
		c0-0.587-0.045-1.167-0.063-1.754c0-0.737-0.051-1.474-0.082-2.21c0-0.593-0.063-1.18-0.094-1.773
		c-0.037-0.737-0.074-1.467-0.119-2.204c-0.037-0.625-0.086-1.249-0.131-1.873c-0.043-0.625-0.094-1.417-0.148-2.129
		c-0.057-0.712-0.112-1.311-0.17-1.967c-0.057-0.655-0.11-1.361-0.174-2.042c-0.063-0.681-0.145-1.38-0.213-2.067
		s-0.131-1.299-0.199-1.955c-0.067-0.655-0.176-1.467-0.264-2.198c-0.074-0.625-0.143-1.249-0.217-1.835
		c-0.107-0.843-0.228-1.686-0.344-2.529c-0.068-0.506-0.132-1.012-0.207-1.518c-0.193-1.355-0.406-2.71-0.623-4.064
		c-0.332-2.036,0.131,1.055,0.272,3.009c-0.262-1.648-0.449-2.56-0.449-2.56s-3.803,4.415-9.516,12.569"/>
	<polygon opacity="0.24" fill="#1B1B1B" points="571.682,386.042 559.027,343.931 522.836,275.447 481.441,231.691 437.486,200.228 
		399.324,185.206 353.537,168.876 278.15,164.061 230.612,172.665 191.822,184.627 122.995,225.019 79.975,273.135 40.312,337.738 
		24.711,392.715 21.795,476.121 36.667,532.991 69.477,597.737 92.616,629.014 124.615,658.428 164.577,685.536 213.859,707.03 
		296.324,716.737 339.389,717.939 403.119,699.94 460.084,668.589 496.736,637.238 525.154,603.239 565.334,524.369 574.205,470.42 
			"/>
	<polygon opacity="0.24" fill="#363636" points="279.527,201.966 245.771,235.554 300.842,257.939 	"/>
	<polygon opacity="0.24" fill="#424242" points="300.842,257.939 279.527,201.966 341.813,206.994 	"/>
	<polygon opacity="0.24" fill="#515151" points="300.842,257.939 407.469,254.7 341.813,206.994 	"/>
	<polygon opacity="0.24" fill="#5E5E5E" points="407.469,254.7 341.813,206.994 399.549,206.639 	"/>
	<polygon opacity="0.24" fill="#6B6B6B" points="407.469,254.7 468.184,250.725 399.549,206.639 	"/>
	<polygon opacity="0.24" fill="#585858" points="468.184,250.725 399.549,206.639 433.666,202.994 	"/>
	<polygon opacity="0.24" fill="#5E5E5E" points="468.184,250.725 433.666,202.994 481.441,231.691 	"/>
	<polygon opacity="0.24" fill="#515151" points="513.889,279.952 468.184,250.725 481.441,231.691 	"/>
	<polygon opacity="0.24" fill="#494949" points="468.184,250.725 460.539,283.422 502.344,300.175 	"/>
	<polygon opacity="0.24" fill="#454545" points="468.184,250.725 513.889,279.952 502.344,300.175 	"/>
	<polygon opacity="0.24" fill="#5E5E5E" points="407.469,254.7 468.184,250.725 460.539,283.422 	"/>
	<polygon opacity="0.24" fill="#585858" points="407.469,254.7 460.539,283.422 421.236,328.561 	"/>
	<polygon opacity="0.24" fill="#4F4F4F" points="407.469,254.7 359.5,298.238 421.236,328.561 	"/>
	<polygon opacity="0.24" fill="#4F4F4F" points="300.842,257.939 407.469,254.7 359.5,298.238 	"/>
	<polygon opacity="0.24" fill="#515151" points="421.236,328.561 460.539,283.422 489.572,339.881 	"/>
	<polygon opacity="0.24" fill="#474747" points="460.539,283.422 489.572,339.881 502.344,300.175 	"/>
	<polygon opacity="0.24" fill="#3E3E3E" points="489.572,339.881 502.344,300.175 532.76,372.722 	"/>
	<polygon opacity="0.24" fill="#343434" points="502.344,300.175 548.697,334.218 532.76,372.722 	"/>
	<polygon opacity="0.24" fill="#373737" points="502.344,300.175 548.697,334.218 513.889,279.952 	"/>
	<polygon opacity="0.24" fill="#2F2F2F" points="513.889,279.952 522.836,275.447 548.697,334.218 	"/>
	<polygon opacity="0.24" fill="#161616" points="548.697,334.218 559.027,343.931 522.836,275.447 	"/>
	<polygon opacity="0.24" fill="#3B3B3B" points="513.889,279.952 522.836,275.447 481.441,231.691 	"/>
	<polygon opacity="0.24" fill="#181818" points="569.357,418.944 559.027,343.931 571.682,386.042 569.189,418.944 	"/>
	<polygon opacity="0.24" fill="#1B1B1B" points="548.697,334.218 569.357,418.944 559.027,343.931 	"/>
	<polygon opacity="0.24" fill="#161616" points="532.76,372.722 569.357,418.944 548.697,334.218 	"/>
	<polygon opacity="0.24" fill="#202020" points="569.189,418.944 571.682,386.042 574.205,470.42 569.357,418.944 	"/>
	<polygon opacity="0.24" fill="#343434" points="563.227,485.622 574.205,470.42 569.357,418.944 	"/>
	<polygon opacity="0.24" fill="#343434" points="565.334,524.369 556.555,528.611 574.205,470.42 	"/>
	<polygon opacity="0.24" fill="#272727" points="556.555,528.611 574.205,470.42 563.227,485.622 	"/>
	<polygon opacity="0.24" fill="#202020" points="563.227,485.622 569.357,418.944 550.555,441.188 	"/>
	<polygon opacity="0.24" fill="#2F2F2F" points="556.555,528.611 563.227,485.622 526.961,546.742 	"/>
	<polygon opacity="0.24" fill="#1B1B1B" points="532.76,372.722 569.357,418.944 550.555,441.188 	"/>
	<polygon opacity="0.24" fill="#1F1F1F" points="563.227,485.622 550.555,441.188 531.434,495.921 	"/>
	<polygon opacity="0.24" fill="#222222" points="526.961,546.742 563.227,485.622 531.434,495.921 	"/>
	<polygon opacity="0.24" fill="#3B3B3B" points="525.154,603.239 565.334,524.369 556.555,528.611 	"/>
	<polygon opacity="0.24" fill="#3B3B3B" points="525.154,603.239 556.555,528.611 527.178,583.009 	"/>
	<polygon opacity="0.24" fill="#2B2B2B" points="527.178,583.009 556.555,528.611 526.961,546.742 	"/>
	<polygon opacity="0.24" fill="#343434" points="496.736,637.238 527.178,583.009 525.154,603.239 	"/>
	<polyline opacity="0.24" fill="#444444" points="458.002,655.101 496.736,637.238 460.084,668.589 458.002,655.101 	"/>
	<polygon opacity="0.24" fill="#343434" points="496.736,637.238 527.178,583.009 458.002,655.101 	"/>
	<polygon opacity="0.24" fill="#353535" points="458.002,655.101 460.084,668.589 427.779,678.607 	"/>
	<polygon opacity="0.24" fill="#444444" points="403.119,699.94 427.779,678.607 460.084,668.589 	"/>
	<polygon opacity="0.24" fill="#444444" points="403.119,699.94 427.779,678.607 347.631,708.576 	"/>
	<polygon opacity="0.24" fill="#444444" points="339.389,717.939 403.119,699.94 347.631,708.576 	"/>
	<polygon opacity="0.24" fill="#444444" points="296.324,716.737 339.389,717.939 347.631,708.576 	"/>
	<polygon opacity="0.24" fill="#4F4F4F" points="213.859,707.03 209.155,699.511 296.324,716.737 	"/>
	<polygon opacity="0.24" fill="#3F3F3F" points="213.859,707.03 209.155,699.511 164.577,685.536 	"/>
	<polygon opacity="0.24" fill="#3F3F3F" points="124.615,658.428 92.616,629.014 164.577,685.536 	"/>
	<polygon opacity="0.24" fill="#464646" points="92.616,629.014 69.477,597.737 84.847,602.809 	"/>
	<polygon opacity="0.24" fill="#3B3B3B" points="92.616,629.014 164.577,685.536 141.039,655.443 	"/>
	<polygon opacity="0.24" fill="#3F3F3F" points="92.616,629.014 141.039,655.443 84.847,602.809 	"/>
	<polygon opacity="0.24" fill="#353535" points="141.039,655.443 209.155,699.511 164.577,685.536 	"/>
	<polygon opacity="0.24" fill="#3B3B3B" points="141.039,655.443 209.155,699.511 210.283,673.599 	"/>
	<polygon opacity="0.24" fill="#3B3B3B" points="246.182,690.427 209.155,699.511 210.283,673.599 	"/>
	<polygon opacity="0.24" fill="#515151" points="84.847,602.809 69.477,597.737 59.196,551.583 	"/>
	<polygon opacity="0.24" fill="#6B6B6B" points="69.477,597.737 36.667,532.991 59.196,551.583 	"/>
	<polyline opacity="0.24" fill="#4F4F4F" points="25.876,463.292 59.196,551.583 36.667,532.991 	"/>
	<polygon opacity="0.24" fill="#555555" points="36.667,532.991 21.795,476.121 25.876,463.292 	"/>
	<polygon opacity="0.24" fill="#323232" points="25.876,463.292 21.795,476.121 24.711,392.715 	"/>
	<polygon opacity="0.24" fill="#272727" points="40.312,337.738 50.518,333.944 24.711,392.715 	"/>
	<polygon opacity="0.24" fill="#2F2F2F" points="24.711,392.715 44.25,389.07 50.518,333.944 	"/>
	<polygon opacity="0.24" fill="#353535" points="25.876,463.292 24.711,392.715 44.25,389.07 	"/>
	<polygon opacity="0.24" fill="#333333" points="44.25,389.07 42.935,449.293 25.876,463.292 	"/>
	<polygon opacity="0.24" fill="#262626" points="79.975,273.135 50.518,333.944 40.312,337.738 	"/>
	<polygon opacity="0.24" fill="#0C0C0C" points="79.975,273.135 117.6,237.118 122.995,225.019 	"/>
	<polygon opacity="0.24" fill="#212121" points="122.995,225.019 167.76,202.708 117.6,237.118 	"/>
	<polyline opacity="0.24" fill="#111111" points="122.995,225.019 191.822,184.627 167.76,202.708 122.995,225.019 	"/>
	<polygon opacity="0.24" fill="#1F1F1F" points="167.76,202.708 230.612,172.665 191.822,184.627 	"/>
	<polygon opacity="0.24" fill="#1F1F1F" points="230.612,172.665 206.04,199.206 167.76,202.708 	"/>
	<polygon opacity="0.24" fill="#2A2A2A" points="206.04,199.206 264.586,175.73 230.612,172.665 	"/>
	<polygon opacity="0.24" fill="#323232" points="278.15,164.061 230.612,172.665 264.586,175.73 	"/>
	<polyline opacity="0.24" fill="#393939" points="323.109,175.145 264.586,175.73 278.15,164.061 	"/>
	<polygon opacity="0.24" fill="#2A2A2A" points="278.15,164.061 353.537,168.876 323.109,175.145 	"/>
	<polygon opacity="0.24" fill="#515151" points="323.109,175.145 353.537,168.876 399.324,185.206 	"/>
	<polygon opacity="0.24" fill="#4C4C4C" points="433.666,202.994 399.324,185.206 437.486,200.228 	"/>
	<polygon opacity="0.24" fill="#4E4E4E" points="433.666,202.994 437.486,200.228 481.441,231.691 	"/>
	<polygon opacity="0.24" fill="#444444" points="209.155,699.511 296.324,716.737 246.182,690.427 	"/>
	<polygon opacity="0.24" fill="#3B3B3B" points="296.324,716.737 246.182,690.427 295.252,681.262 	"/>
	<polygon opacity="0.24" fill="#444444" points="347.631,708.576 296.324,716.737 295.252,681.262 	"/>
	<polygon opacity="0.24" fill="#404040" points="347.631,708.576 295.252,681.262 367.438,661.816 	"/>
	<polyline opacity="0.24" fill="#444444" points="427.779,678.607 347.631,708.576 367.438,661.816 	"/>
	<polygon opacity="0.24" fill="#353535" points="427.779,678.607 431.443,631.817 367.438,661.816 	"/>
	<polygon opacity="0.24" fill="#3B3B3B" points="427.779,678.607 431.443,631.817 458.002,655.101 	"/>
	<polygon opacity="0.24" fill="#353535" points="458.002,655.101 431.443,631.817 495.615,589.059 	"/>
	<polygon opacity="0.24" fill="#444444" points="458.002,655.101 495.615,589.059 527.178,583.009 	"/>
	<polygon opacity="0.24" fill="#222222" points="527.178,583.009 526.961,546.742 495.615,589.059 	"/>
	<polyline opacity="0.24" fill="#565656" points="399.324,185.206 399.549,206.639 433.666,202.994 	"/>
	<polygon opacity="0.24" fill="#555555" points="399.549,206.639 399.324,185.206 323.109,175.145 	"/>
	<polygon opacity="0.24" fill="#555555" points="323.109,175.145 341.813,206.994 399.549,206.639 	"/>
	<polygon opacity="0.24" fill="#454545" points="323.109,175.145 341.813,206.994 279.527,201.966 	"/>
	<polygon opacity="0.24" fill="#3B3B3B" points="264.586,175.73 279.527,201.966 323.109,175.145 	"/>
	<polygon opacity="0.24" fill="#303030" points="206.04,199.206 264.586,175.73 279.527,201.966 	"/>
	<polygon opacity="0.24" fill="#3B3B3B" points="245.771,235.554 206.04,199.206 279.527,201.966 	"/>
	<polygon opacity="0.24" fill="#121212" points="167.76,202.708 117.6,237.118 141.369,260.014 	"/>
	<polygon opacity="0.24" fill="#111111" points="206.04,199.206 141.369,260.014 167.76,202.708 	"/>
	<polygon opacity="0.24" fill="#171717" points="141.369,260.014 182.632,266.899 206.04,199.206 	"/>
	<polygon opacity="0.24" fill="#212121" points="182.632,266.899 206.04,199.206 245.771,235.554 	"/>
	<polygon opacity="0.24" fill="#111111" points="79.975,273.135 82.492,297.602 117.6,237.118 	"/>
	<polygon opacity="0.24" fill="#202020" points="50.518,333.944 79.975,273.135 82.492,297.602 	"/>
	<polygon opacity="0.24" fill="#141414" points="82.492,297.602 117.6,237.118 141.369,260.014 	"/>
	<polygon opacity="0.24" fill="#232323" points="80.367,350.037 82.492,297.602 50.518,333.944 	"/>
	<polygon opacity="0.24" fill="#202020" points="80.367,350.037 82.492,297.602 123.979,331.371 	"/>
	<polygon opacity="0.24" fill="#191919" points="123.979,331.371 141.369,260.014 82.492,297.602 	"/>
	<polygon opacity="0.24" fill="#111111" points="123.979,331.371 141.369,260.014 182.632,266.899 	"/>
	<polygon opacity="0.24" fill="#262626" points="44.25,389.07 50.518,333.944 80.367,350.037 	"/>
	<polygon opacity="0.24" fill="#3D3D3D" points="59.196,551.583 42.935,449.293 25.876,463.292 	"/>
	<polygon opacity="0.24" fill="#444444" points="84.847,602.809 59.196,551.583 86.685,555.452 	"/>
	<polygon opacity="0.24" fill="#404040" points="59.196,551.583 86.685,555.452 67.439,510.394 	"/>
	<polygon opacity="0.24" fill="#303030" points="59.196,551.583 42.935,449.293 67.439,510.394 	"/>
	<polygon opacity="0.24" fill="#333333" points="84.847,602.809 113.737,608.385 86.685,555.452 	"/>
	<polygon opacity="0.24" fill="#353535" points="84.847,602.809 141.039,655.443 113.737,608.385 	"/>
	<polygon opacity="0.24" fill="#444444" points="141.039,655.443 161.368,635.843 113.737,608.385 	"/>
	<polygon opacity="0.24" fill="#3B3B3B" points="141.039,655.443 210.283,673.599 161.368,635.843 	"/>
	<polygon opacity="0.24" fill="#444444" points="210.283,673.599 246.182,690.427 295.252,681.262 	"/>
	<polygon opacity="0.24" fill="#343434" points="210.283,673.599 233.752,624.329 295.252,681.262 	"/>
	<polygon opacity="0.24" fill="#2F2F2F" points="42.935,449.293 83.04,449.236 44.25,389.07 	"/>
	<polygon opacity="0.24" fill="#202020" points="44.25,389.07 83.04,449.236 80.367,350.037 	"/>
	<polygon opacity="0.24" fill="#3B3B3B" points="42.935,449.293 67.439,510.394 83.04,449.236 	"/>
	<polygon opacity="0.24" fill="#313131" points="67.439,510.394 83.04,449.236 102.435,497.56 	"/>
	<polygon opacity="0.24" fill="#333333" points="86.685,555.452 102.435,497.56 67.439,510.394 	"/>
	<polygon opacity="0.24" fill="#343434" points="86.685,555.452 161.057,601.663 102.435,497.56 	"/>
	<polygon opacity="0.24" fill="#3B3B3B" points="113.737,608.385 161.057,601.663 86.685,555.452 	"/>
	<polygon opacity="0.24" fill="#404040" points="161.368,635.843 161.057,601.663 113.737,608.385 	"/>
	<polygon opacity="0.24" fill="#343434" points="161.368,635.843 161.057,601.663 233.752,624.329 	"/>
	<polygon opacity="0.24" fill="#343434" points="161.368,635.843 210.283,673.599 233.752,624.329 	"/>
	<polygon opacity="0.24" fill="#2C2C2C" points="295.252,681.262 301.428,625.102 233.752,624.329 	"/>
	<polygon opacity="0.24" fill="#373737" points="295.252,681.262 301.428,625.102 367.438,661.816 	"/>
	<polygon opacity="0.24" fill="#292929" points="367.438,661.816 364.871,598.685 301.428,625.102 	"/>
	<polygon opacity="0.24" fill="#343434" points="367.438,661.816 364.871,598.685 431.443,631.817 	"/>
	<polygon opacity="0.24" fill="#202020" points="364.871,598.685 406.061,561.277 431.443,631.817 	"/>
	<polygon opacity="0.24" fill="#1B1B1B" points="431.443,631.817 462.582,537.26 406.061,561.277 	"/>
	<polygon opacity="0.24" fill="#2F2F2F" points="495.615,589.059 431.443,631.817 462.582,537.26 	"/>
	<polygon opacity="0.24" fill="#222222" points="495.615,589.059 526.961,546.742 462.582,537.26 	"/>
	<polygon opacity="0.24" fill="#171717" points="526.961,546.742 462.582,537.26 531.434,495.921 	"/>
	<polyline opacity="0.24" fill="#181818" points="550.555,441.188 505.752,409.207 531.434,495.921 550.555,441.188 	"/>
	<polygon opacity="0.24" fill="#121212" points="550.555,441.188 532.76,372.722 505.752,409.207 	"/>
	<polygon opacity="0.24" fill="#121212" points="462.582,537.26 531.434,495.921 464.699,466.134 	"/>
	<polygon opacity="0.24" fill="#111111" points="462.582,537.26 400.178,474.027 406.061,561.277 	"/>
	<polygon opacity="0.24" fill="#222222" points="364.871,598.685 316.959,556.144 406.061,561.277 	"/>
	<polygon opacity="0.24" fill="#2F2F2F" points="364.871,598.685 301.428,625.102 316.959,556.144 	"/>
	<polygon opacity="0.24" fill="#333333" points="233.752,624.329 301.428,625.102 217.784,570.249 	"/>
	<polygon opacity="0.24" fill="#2E2E2E" points="233.752,624.329 217.784,570.249 161.057,601.663 	"/>
	<polygon opacity="0.24" fill="#2B2B2B" points="161.057,601.663 171.667,546.742 217.784,570.249 	"/>
	<polygon opacity="0.24" fill="#2E2E2E" points="171.667,546.742 102.435,497.56 161.057,601.663 	"/>
	<polygon opacity="0.24" fill="#202020" points="301.428,625.102 316.959,556.144 217.784,570.249 	"/>
	<polygon opacity="0.24" fill="#242424" points="83.04,449.236 102.934,385.55 80.367,350.037 	"/>
	<polygon opacity="0.24" fill="#202020" points="80.367,350.037 102.934,385.55 123.979,331.371 	"/>
	<polygon opacity="0.24" fill="#171717" points="123.979,331.371 211.292,305.851 182.632,266.899 	"/>
	<polygon opacity="0.24" fill="#111111" points="123.979,331.371 211.292,305.851 165.175,400.328 	"/>
	<polygon opacity="0.24" fill="#171717" points="462.582,537.26 400.178,474.027 464.699,466.134 	"/>
	<polygon opacity="0.24" fill="#111111" points="531.434,495.921 505.752,409.207 464.699,466.134 	"/>
	<polygon opacity="0.24" fill="#111111" points="406.061,561.277 334.697,492.089 400.178,474.027 	"/>
	<polygon opacity="0.24" fill="#171717" points="316.959,556.144 406.061,561.277 334.697,492.089 	"/>
	<polygon opacity="0.24" fill="#121212" points="316.959,556.144 268.157,516.294 334.697,492.089 	"/>
	<polygon opacity="0.24" fill="#2E2E2E" points="505.752,409.207 532.76,372.722 489.572,339.881 	"/>
	<polygon opacity="0.24" fill="#191919" points="123.979,331.371 165.175,400.328 102.934,385.55 	"/>
	<polygon opacity="0.24" fill="#202020" points="102.934,385.55 165.175,400.328 123.083,466.807 	"/>
	<polygon opacity="0.24" fill="#1F1F1F" points="211.292,305.851 245.771,235.554 182.632,266.899 	"/>
	<polyline opacity="0.24" fill="#202020" points="123.083,466.807 102.934,385.55 83.04,449.236 	"/>
	<polygon opacity="0.24" fill="#313131" points="83.04,449.236 123.083,466.807 102.435,497.56 	"/>
	<polygon opacity="0.24" fill="#2B2B2B" points="123.083,466.807 171.667,546.742 102.435,497.56 	"/>
	<polygon opacity="0.24" fill="#222222" points="171.667,546.742 178.159,450.028 123.083,466.807 	"/>
	<polygon opacity="0.24" fill="#1B1B1B" points="171.667,546.742 268.157,516.294 178.159,450.028 	"/>
	<polygon opacity="0.24" fill="#171717" points="268.157,516.294 258.755,441.523 178.159,450.028 	"/>
	<polygon opacity="0.24" fill="#131313" points="334.697,492.089 268.157,516.294 258.755,441.523 	"/>
	<polygon opacity="0.24" fill="#111111" points="258.755,441.523 326.811,415.998 334.697,492.089 	"/>
	<polygon opacity="0.24" fill="#222222" points="217.784,570.249 316.959,556.144 268.157,516.294 	"/>
	<polygon opacity="0.24" fill="#272727" points="217.784,570.249 171.667,546.742 268.157,516.294 	"/>
	<polygon opacity="0.24" fill="#272727" points="211.292,305.851 270.393,312.119 245.771,235.554 	"/>
	<polygon opacity="0.24" fill="#393939" points="300.842,257.939 245.771,235.554 270.393,312.119 	"/>
	<polygon opacity="0.24" fill="#3C3C3C" points="300.842,257.939 359.5,298.238 270.393,312.119 	"/>
	<polygon opacity="0.24" fill="#323232" points="270.393,312.119 357.799,358.597 326.811,415.998 	"/>
	<polygon opacity="0.24" fill="#3C3C3C" points="357.799,358.597 359.5,298.238 270.393,312.119 	"/>
	<polygon opacity="0.24" fill="#444444" points="357.799,358.597 359.5,298.238 421.236,328.561 	"/>
	<polygon opacity="0.24" fill="#262626" points="270.393,312.119 326.811,415.998 227.858,366.298 	"/>
	<polygon opacity="0.24" fill="#1C1C1C" points="258.755,441.523 326.811,415.998 227.858,366.298 	"/>
	<polygon opacity="0.24" fill="#2F2F2F" points="326.811,415.998 414.084,400.017 357.799,358.597 	"/>
	<polygon opacity="0.24" fill="#404040" points="421.236,328.561 414.084,400.017 357.799,358.597 	"/>
	<polygon opacity="0.24" fill="#393939" points="421.236,328.561 462.432,384.659 414.084,400.017 	"/>
	<polygon opacity="0.24" fill="#444444" points="489.572,339.881 421.236,328.561 462.432,384.659 	"/>
	<polygon opacity="0.24" fill="#333333" points="462.432,384.659 505.752,409.207 489.572,339.881 	"/>
	<polygon opacity="0.24" fill="#1F1F1F" points="464.699,466.134 505.752,409.207 462.432,384.659 	"/>
	<polygon opacity="0.24" fill="#1F1F1F" points="464.699,466.134 462.432,384.659 414.084,400.017 	"/>
	<polyline opacity="0.24" fill="#1B1B1B" points="414.084,400.017 400.178,474.027 464.699,466.134 	"/>
	<polygon opacity="0.24" fill="#121212" points="326.811,415.998 414.084,400.017 400.178,474.027 	"/>
	<polygon opacity="0.24" fill="#171717" points="334.697,492.089 400.178,474.027 326.811,415.998 	"/>
	<polygon opacity="0.24" fill="#181818" points="211.292,305.851 227.858,366.298 270.393,312.119 	"/>
	<polygon opacity="0.24" fill="#191919" points="211.292,305.851 165.175,400.328 227.858,366.298 	"/>
	<polygon opacity="0.24" fill="#111111" points="227.858,366.298 178.159,450.028 258.755,441.523 	"/>
	<polygon opacity="0.24" fill="#131313" points="178.159,450.028 227.858,366.298 165.175,400.328 	"/>
	<polygon opacity="0.24" fill="#1B1B1B" points="123.083,466.807 165.175,400.328 178.159,450.028 	"/>
</g>
<g id="Layer_2">
	<g id="Layer_2_1_">
		<g id="Layer_1-2">
			<g id="Layer_2-2">
				<g id="Focus_copy">
					<g opacity="0.4">
						
							<linearGradient id="SVGID_1_" gradientUnits="userSpaceOnUse" x1="524.9971" y1="305.7344" x2="301.6574" y2="1036.313" gradientTransform="matrix(0.6244 0 0 -0.6244 0.1857 727.4708)">
							<stop  offset="0" style="stop-color:#000F43;stop-opacity:0.3"/>
							<stop  offset="0.35" style="stop-color:#00165A;stop-opacity:0.17"/>
							<stop  offset="1" style="stop-color:#002079;stop-opacity:0"/>
						</linearGradient>
						<path fill="url(#SVGID_1_)" d="M506.539,615.588c-5.99,4.226-12.275,8.021-18.807,11.353
							c8.651-12.688,16.633-25.817,23.914-39.339c5.905-6.536,11.319-12.894,15.729-19.762c2.148-3.378,4.564-7.543,7.131-12.376
							c15.562-28.035,32.719-73.403,33.205-120.009v-3.534c0.082-11.697-1.113-23.37-3.563-34.809
							c0.122,0.894,0.235,1.786,0.35,2.679c-0.139-0.687-0.256-1.379-0.4-2.066c0.23,1.249,0.412,2.498,0.625,3.746
							c3.178,26.986,0.918,53.305-10.416,72.71c-0.18,0.281-0.36,0.549-0.543,0.824c5.875-29.49,7.842-62.059,1.305-94.657
							c0,0-2.614-15.848-22.09-63.963c-11.239-27.692-31.114-50.401-48.703-66.941c-15.416-19.076-29.416-31.844-37.133-39.999
							c-16.123-16.971-22.879-29.703-25.656-38.007c-2.403-1.205-33.182-31.101-35.622-32.238
							c-13.431,20.824-55.671,85.961-35.591,146.827c9.104,27.58,32.138,56.196,56.238,72.269
							c1.057,1.211,14.361,15.609,20.662,48.179c6.525,33.622,3.121,59.854-10.328,98.653
							c-15.791,34.035-56.207,67.678-94.106,71.118c-80.967,7.354-110.613-40.654-110.613-40.654
							c28.936,11.539,60.922,9.147,80.373-2.822c19.605-12.132,31.463-21.123,41.092-17.576c9.479,3.483,17.059-6.774,10.252-17.39
							c-10.703-16.483-30.219-24.98-49.576-21.586c-19.625,3.19-37.607,18.732-63.32,3.678c-1.664-0.966-3.275-2.021-4.827-3.158
							c-1.692-1.118,5.515,1.697,3.828,0.431c-4.995-2.716-13.86-8.643-16.159-10.752c-0.381-0.351,3.885,1.361,3.504,1.012
							c-24.047-19.8-21.043-33.175-20.287-41.565c0.623-6.711,4.994-15.311,12.332-18.8c3.553,1.942,5.77,3.421,5.77,3.421
							s-1.518-3.122-2.335-4.732c0.288-0.125,0.562-0.094,0.851-0.213c2.909,1.405,9.365,5.059,12.743,7.287
							c4.415,3.122,5.826,5.895,5.826,5.895s1.161-0.625,0.3-3.354c-0.313-1.111-1.654-4.65-6.025-8.223h0.274
							c2.617,1.484,5.097,3.197,7.412,5.119c1.249-4.482,3.453-9.166,2.966-17.539c-0.299-5.889-0.162-7.411-1.199-9.684
							c-0.93-1.955,0.52-2.717,2.137-0.688c-0.275-1.59-0.738-3.141-1.381-4.621v-0.15c2.018-7.018,42.615-25.263,45.582-27.398
							c4.855-3.43,8.927-7.852,11.944-12.974c2.261-3.597,3.959-8.648,4.371-16.303c0.225-5.52-2.348-9.197-43.401-13.5
							c-11.24-1.105-17.814-9.241-21.561-16.746c-0.682-1.617-1.38-3.084-2.079-4.546c-0.667-1.711-1.2-3.471-1.599-5.264
							c6.712-19.275,17.988-35.59,34.572-47.891c0.906-0.824-3.608,0.212-2.709-0.624c1.055-0.962,7.936-3.747,9.234-4.371
							c1.586-0.749-6.793-4.308-14.191-3.44c-7.537,0.849-9.135,1.749-13.156,3.453c1.667-1.661,6.975-3.84,5.732-3.828
							c-8.117,1.249-18.221,5.969-26.85,11.314c-0.02-0.932,0.158-1.857,0.52-2.716c-4.021,1.705-13.899,8.61-16.779,14.448
							c0.125-1.119,0.182-2.246,0.17-3.372c-3.064,2.555-5.827,5.449-8.236,8.629l-0.15,0.138
							c-23.328-9.366-43.852-9.99-61.222-5.794c-3.802-3.815-5.657-1.024-14.305-20.024c-0.587-1.143,0.45,1.13,0,0
							c-1.425-3.684,0.868,4.914,0,0c-14.536,11.47-33.667,24.47-42.853,33.648c-0.113,0.369,10.715-3.06,0,0
							c-3.746,1.074-3.498,3.297-4.064,23.415c-0.139,1.523,0,3.234-0.139,4.608c-7.336,9.366-12.332,17.258-14.224,21.361
							c-9.483,16.347-19.937,41.834-30.063,82.139c4.473-10.904,9.859-21.411,16.103-31.407
							c-8.423,21.397-16.565,54.997-18.188,106.733c2.035-10.678,4.646-21.236,7.824-31.632
							c-1.992,42.929,5.408,85.774,21.686,125.547c5.826,14.249,15.46,35.878,31.844,59.567
							c51.557,54.254,124.242,87.972,204.727,87.972C379.236,710.721,454.695,673.962,506.539,615.588z"/>
						
							<linearGradient id="SVGID_2_" gradientUnits="userSpaceOnUse" x1="540.9268" y1="253.6245" x2="349.4872" y2="879.8528" gradientTransform="matrix(0.6244 0 0 -0.6244 0.1857 727.4708)">
							<stop  offset="0" style="stop-color:#000F43;stop-opacity:0.4"/>
							<stop  offset="0.48" style="stop-color:#001962;stop-opacity:0.17"/>
							<stop  offset="1" style="stop-color:#002079;stop-opacity:0"/>
						</linearGradient>
						<path fill="url(#SVGID_2_)" d="M506.539,615.588c-5.99,4.226-12.275,8.021-18.807,11.353
							c8.651-12.688,16.633-25.817,23.914-39.339c5.905-6.536,11.319-12.894,15.729-19.762c2.148-3.378,4.564-7.543,7.131-12.376
							c15.562-28.035,32.719-73.403,33.205-120.009v-3.534c0.082-11.697-1.113-23.37-3.563-34.809
							c0.122,0.894,0.235,1.786,0.35,2.679c-0.139-0.687-0.256-1.379-0.4-2.066c0.23,1.249,0.412,2.498,0.625,3.746
							c3.178,26.986,0.918,53.305-10.416,72.71c-0.18,0.281-0.36,0.549-0.543,0.824c5.875-29.49,7.842-62.059,1.305-94.657
							c0,0-2.614-15.848-22.09-63.963c-11.239-27.692-31.114-50.401-48.703-66.941c-15.416-19.076-29.416-31.844-37.133-39.999
							c-16.123-16.971-22.879-29.703-25.656-38.007c-2.403-1.205-33.182-31.101-35.622-32.238
							c-13.431,20.824-55.671,85.961-35.591,146.827c9.104,27.58,32.138,56.196,56.238,72.269
							c1.057,1.211,14.361,15.609,20.662,48.179c6.525,33.622,3.121,59.854-10.328,98.653
							c-15.791,34.035-56.207,67.678-94.106,71.118c-80.967,7.354-110.613-40.654-110.613-40.654
							c28.936,11.539,60.922,9.147,80.373-2.822c19.605-12.132,31.463-21.123,41.092-17.576c9.479,3.483,17.059-6.774,10.252-17.39
							c-10.703-16.483-30.219-24.98-49.576-21.586c-19.625,3.19-37.607,18.732-63.32,3.678c-1.664-0.966-3.275-2.021-4.827-3.158
							c-1.692-1.118,5.515,1.697,3.828,0.431c-4.995-2.716-13.86-8.643-16.159-10.752c-0.381-0.351,3.885,1.361,3.504,1.012
							c-24.047-19.8-21.043-33.175-20.287-41.565c0.623-6.711,4.994-15.311,12.332-18.8c3.553,1.942,5.77,3.421,5.77,3.421
							s-1.518-3.122-2.335-4.732c0.288-0.125,0.562-0.094,0.851-0.213c2.909,1.405,9.365,5.059,12.743,7.287
							c4.415,3.122,5.826,5.895,5.826,5.895s1.161-0.625,0.3-3.354c-0.313-1.111-1.654-4.65-6.025-8.223h0.274
							c2.617,1.484,5.097,3.197,7.412,5.119c1.249-4.482,3.453-9.166,2.966-17.539c-0.299-5.889-0.162-7.411-1.199-9.684
							c-0.93-1.955,0.52-2.717,2.137-0.688c-0.275-1.59-0.738-3.141-1.381-4.621v-0.15c2.018-7.018,42.615-25.263,45.582-27.398
							c4.855-3.43,8.927-7.852,11.944-12.974c2.261-3.597,3.959-8.648,4.371-16.303c0.225-5.52-2.348-9.197-43.401-13.5
							c-11.24-1.105-17.814-9.241-21.561-16.746c-0.682-1.617-1.38-3.084-2.079-4.546c-0.667-1.711-1.2-3.471-1.599-5.264
							c6.712-19.275,17.988-35.59,34.572-47.891c0.906-0.824-3.608,0.212-2.709-0.624c1.055-0.962,7.936-3.747,9.234-4.371
							c1.586-0.749-6.793-4.308-14.191-3.44c-7.537,0.849-9.135,1.749-13.156,3.453c1.667-1.661,6.975-3.84,5.732-3.828
							c-8.117,1.249-18.221,5.969-26.85,11.314c-0.02-0.932,0.158-1.857,0.52-2.716c-4.021,1.705-13.899,8.61-16.779,14.448
							c0.125-1.119,0.182-2.246,0.17-3.372c-3.064,2.555-5.827,5.449-8.236,8.629l-0.15,0.138
							c-23.328-9.366-43.852-9.99-61.222-5.794c-3.802-3.815-5.657-1.024-14.305-20.024c-0.587-1.143,0.45,1.13,0,0
							c-1.425-3.684,0.868,4.914,0,0c-14.536,11.47-33.667,24.47-42.853,33.648c-0.113,0.369,10.715-3.06,0,0
							c-3.746,1.074-3.498,3.297-4.064,23.415c-0.139,1.523,0,3.234-0.139,4.608c-7.336,9.366-12.332,17.258-14.224,21.361
							c-9.483,16.347-19.937,41.834-30.063,82.139c4.473-10.904,9.859-21.411,16.103-31.407
							c-8.423,21.397-16.565,54.997-18.188,106.733c2.035-10.678,4.646-21.236,7.824-31.632
							c-1.992,42.929,5.408,85.774,21.686,125.547c5.826,14.249,15.46,35.878,31.844,59.567
							c51.557,54.254,124.242,87.972,204.727,87.972C379.236,710.721,454.695,673.962,506.539,615.588z"/>
					</g>
					
						<radialGradient id="SVGID_3_" cx="535.6982" cy="585.0811" r="654.2491" gradientTransform="matrix(0.6244 0 0 -0.6244 0.1857 727.4708)" gradientUnits="userSpaceOnUse">
						<stop  offset="0.78" style="stop-color:#FFFFFF"/>
						<stop  offset="1" style="stop-color:#FFFFFF"/>
					</radialGradient>
					<path fill="url(#SVGID_3_)" d="M559.931,549.964c0.656-1.087,1.302-2.176,1.931-3.266l0.08-0.145
						c0.625-1.081,1.248-2.167,1.873-3.247l0.081-0.149c0.623-1.08,1.212-2.166,1.806-3.259l0.104-0.193
						c0.586-1.081,1.162-2.154,1.73-3.234l0.104-0.2c0.57-1.081,1.127-2.161,1.675-3.239l0.116-0.237
						c0.543-1.074,1.074-2.148,1.605-3.229l0.131-0.27c0.518-1.066,1.037-2.142,1.543-3.216l0.137-0.3
						c0.5-1.067,0.992-2.129,1.476-3.196l0.147-0.331c0.476-1.054,0.945-2.112,1.412-3.179l0.162-0.374
						c0.455-1.049,0.898-2.1,1.342-3.153l0.17-0.418c0.418-1.043,0.83-2.086,1.248-3.122l0.174-0.443
						c0.42-1.043,0.824-2.079,1.22-3.121l0.182-0.481c0.395-1.027,0.777-2.068,1.148-3.121l0.188-0.524
						c0.365-1.023,0.729-2.051,1.086-3.078l0.188-0.55c0.35-1.021,0.692-2.042,1.028-3.065l0.188-0.624
						c0.332-1.012,0.625-2.023,0.969-3.041l0.188-0.624c0.305-1.006,0.623-2.011,0.903-3.022l0.188-0.668
						c0.287-0.999,0.574-1.998,0.85-2.997c0.068-0.242,0.131-0.486,0.193-0.736c0.268-0.979,0.531-1.96,0.781-2.946
						c0.067-0.263,0.131-0.525,0.198-0.793c0.244-0.968,0.486-1.936,0.726-2.91c0.067-0.281,0.131-0.562,0.192-0.843
						c0.226-0.955,0.449-1.917,0.662-2.872l0.188-0.881c0.205-0.949,0.412-1.873,0.623-2.854c0.063-0.306,0.118-0.624,0.182-0.918
						c0.188-0.941,0.381-1.873,0.557-2.834c0.063-0.317,0.111-0.625,0.174-0.962c0.177-0.931,0.345-1.873,0.507-2.804l0.168-1.012
						c0.155-0.925,0.307-1.873,0.45-2.767c0.056-0.35,0.101-0.706,0.154-1.056c0.139-0.911,0.275-1.823,0.4-2.741
						c0.051-0.374,0.094-0.749,0.145-1.123c0.117-0.894,0.236-1.792,0.342-2.69c0.052-0.395,0.089-0.787,0.134-1.182
						c0.1-0.88,0.205-1.761,0.299-2.646c0.043-0.418,0.082-0.836,0.119-1.248c0.086-0.862,0.168-1.725,0.242-2.585
						c0.038-0.433,0.069-0.868,0.102-1.299c0.068-0.855,0.143-1.705,0.199-2.562c0.03-0.449,0.057-0.897,0.08-1.349
						c0.057-0.843,0.112-1.687,0.155-2.497c0-0.469,0.045-0.943,0.063-1.411c0.037-0.824,0.082-1.648,0.113-2.498
						c0-0.487,0-0.974,0.043-1.461c0-0.818,0.057-1.63,0.067-2.447v-7.83c0-0.561,0-1.123-0.037-1.686c0-0.756,0-1.505-0.049-2.267
						c0-0.587-0.045-1.167-0.063-1.755c0-0.737-0.051-1.473-0.082-2.21c0-0.593-0.063-1.181-0.094-1.773
						c-0.037-0.737-0.074-1.467-0.119-2.204c-0.037-0.625-0.086-1.248-0.131-1.873c-0.043-0.625-0.095-1.416-0.148-2.129
						c-0.057-0.712-0.113-1.311-0.17-1.967s-0.111-1.361-0.174-2.042c-0.063-0.681-0.146-1.38-0.213-2.065
						c-0.068-0.688-0.131-1.299-0.199-1.955s-0.176-1.467-0.264-2.198c-0.074-0.625-0.144-1.249-0.218-1.837
						c-0.106-0.842-0.227-1.686-0.344-2.528c-0.067-0.505-0.131-1.011-0.207-1.517c-0.192-1.355-0.406-2.711-0.623-4.065
						c-0.332-2.036,0.131,1.056,0.273,3.011c-0.263-1.648-0.449-2.561-0.449-2.561s-3.803,4.415-9.516,12.568
						c-1.742-21.264-6.42-42.184-13.898-62.165c-27.717-79.96-87.521-143.574-87.521-165.702
						c-5.82,6.781-10.422,16.858-12.988,28.997c-51.824-48.947-66.812-72.012-66.812-86.167c0,0-72.485,80.803-41.047,165.078
						c18.42,49.383,48.152,68.771,78.211,94.046c-5.844-4.896-11.682-9.592-17.481-14.361l0.242,0.343
						c15.705,22.709,24.352,50.677,24.352,80.752c0,75.702-61.402,137.074-137.148,137.074c-10.32,0.007-20.612-1.149-30.675-3.447
						c-11.108-2.061-21.893-5.589-32.069-10.496c0.833,0.55,1.687,1.102,2.56,1.655c-23.396-14.942-37.226-28.21-45.063-40.086
						c30.857,10.721,66.811,8.835,88.309-3.055c14.417-8.022,32.906-20.874,44.283-17.701l-0.775-0.3
						c0.715,0.126,1.422,0.304,2.111,0.53c10.502,3.503,18.863-6.662,11.363-17.195c-7.351-10.521-26.476-25.601-54.872-21.411
						c-21.723,3.166-41.623,18.582-70.083,3.646c-1.831-0.949-3.613-1.991-5.338-3.122c-1.873-1.104,6.1,1.68,4.24,0.425
						c-5.539-2.697-15.342-8.573-17.883-10.658c-0.426-0.35,4.295,1.35,3.871,0.999c-8.836-6.519-14.361-12.332-17.789-17.482
						c0.33,0.519,0.674,1.036,1.037,1.555c-9.99-14.218-5.802-27.209-3.396-33.305c1.643-3.521,5.238-6.867,8.279-9.004l-0.699,0.5
						c1.17-0.834,2.426-1.542,3.746-2.109c3.934,1.922,6.388,3.391,6.388,3.391s-1.68-3.072-2.585-4.689
						c0.318-0.119,0.625-0.094,0.938-0.211c3.222,1.391,10.353,4.994,14.104,7.223c4.89,3.092,6.442,5.845,6.442,5.845
						s1.287-0.625,0.338-3.328c-0.35-1.104-1.83-4.614-6.668-8.161h0.3c2.872,1.467,5.614,3.174,8.198,5.102
						c1.367-4.445,3.82-9.092,3.277-17.396c-0.33-5.838-0.175-7.355-1.324-9.609c-1.029-1.936,0.576-2.69,2.36-0.681
						c-0.306-1.587-0.817-3.128-1.522-4.583v-0.15c0,0,1.023-1.33,1.492-1.816c8.653-9.01,44.918-22.741,48.321-24.689
						c3.746-2.373,18.046-12.813,18.677-29.715c0.242-5.476-2.599-9.154-47.879-13.399c-18.652-1.723-25.764-18.938-27.943-26.156
						l-0.063,0.168l0,0c-0.015-0.102-0.041-0.203-0.074-0.3c7.436-19.464,20.826-36.084,38.262-47.492
						c1-0.818-3.995,0.206-2.996-0.624c1.167-0.949,8.779-3.703,10.222-4.321c1.754-0.743-7.493-4.271-15.71-3.415
						c-8.342,0.843-10.109,1.736-14.561,3.428c1.873-1.648,7.724-3.809,6.344-3.796c-8.991,1.249-20.168,5.919-29.721,11.239
						c-0.018-0.929,0.18-1.85,0.574-2.691c-4.451,1.692-15.385,8.536-18.563,14.361c0.135-1.108,0.195-2.224,0.181-3.34
						c-3.353,2.498-6.411,5.367-9.116,8.554l-0.168,0.137c-25.787-9.366-48.509-9.99-67.709-5.77l-0.193-0.175l0.225-0.05
						c-3.84-2.829-12.195-11.008-20.418-28.029c-0.625-1.136-0.999,2.342-1.499,1.249c-3.747-8.623-5.981-22.604-5.444-32.469
						c0,0-7.692,3.503-14.056,18.145c-1.18,2.628-1.942,4.083-2.696,5.532c-0.351,0.424,0.793-4.808,0.625-4.521
						c-1.105,1.874-3.972,4.49-5.215,7.73c-1.029,2.647-2.092,4.071-2.878,7.349c-0.243,0.893,0.244-3.946,0-3.359
						c-13.625,26.243-17.133,64.956-16.364,69.57v0.299c-8.137,9.272-13.668,17.115-15.754,21.187
						c-10.496,16.234-22.061,41.485-33.275,81.458c4.988-10.922,10.953-21.371,17.82-31.22
						c-9.322,21.224-18.332,54.547-20.137,105.859c2.26-10.62,5.152-21.095,8.66-31.37c-1.611,34.217,2.379,76.64,24.008,124.529
						c12.844,28.099,42.409,85.293,114.651,129.875l0,0c0,0,24.575,18.295,66.812,32.006c3.121,1.131,6.28,2.248,9.508,3.328
						c-1.011-0.416-1.992-0.832-2.939-1.248c28.12,8.427,57.316,12.72,86.671,12.743c103.933,0.088,138.236-39.555,141.396-43.508
						c5.258-4.957,9.26-10.179,11.764-15.366c44.775-20.661,93.123-54.191,97.683-103.712c-0.076,0.604-0.188,1.205-0.332,1.798
						c0.85-4.672,0.729-9.469-0.351-14.093c0.67-1.078,1.332-2.162,1.986-3.253L559.931,549.964z M119.4,239.578L119.4,239.578z
						 M119.226,239.622L119.226,239.622z M426.523,366.772l0.311,0.513L426.523,366.772z M421.464,358.894
						c2.687,3.784,3.56,5.396,4.996,7.78c-1.449-2.366-2.324-3.978-4.996-7.762V358.894z M254.488,568.196
						c0.924,0.562,1.863,1.128,2.816,1.697C256.361,569.326,255.399,568.764,254.488,568.196z M251.092,566.098l-2.268-1.43
						L251.092,566.098z M253.832,567.79l-2.178-1.305L253.832,567.79z M196.701,446.433l-0.057-0.063L196.701,446.433z
						 M192.955,442.062c-0.381-0.492-0.737-0.979-1.08-1.474c0.336,0.469,0.699,0.955,1.074,1.449L192.955,442.062z
						 M195.688,445.309c-0.479-0.519-0.937-1.043-1.374-1.562c0.417,0.508,0.872,1.021,1.368,1.536L195.688,445.309z
						 M194.127,443.522c-0.375-0.449-0.742-0.905-1.092-1.354c0.344,0.431,0.711,0.88,1.086,1.312L194.127,443.522z
						 M196.775,398.268c0.668-0.462,1.299-0.862,1.874-1.188c-0.647,0.353-1.272,0.742-1.874,1.168V398.268z M198.748,397.019
						l0.388-0.206L198.748,397.019z M199.436,396.662l0.293-0.137L199.436,396.662z M200.061,396.375l0.206-0.08L200.061,396.375z"
						/>
					
						<linearGradient id="SVGID_4_" gradientUnits="userSpaceOnUse" x1="760.6582" y1="1128.2402" x2="774.3683" y2="703.2012" gradientTransform="matrix(0.6244 0 0 -0.6244 0.1857 727.4708)">
						<stop  offset="0" style="stop-color:#FFFFFF;stop-opacity:0.8"/>
						<stop  offset="0.97" style="stop-color:#FFFFFF"/>
					</linearGradient>
					<path fill="url(#SVGID_4_)" d="M508.455,614.345c65.037-63.855,97.943-141.476,84.031-228.527c0,0,5.559,44.644-15.517,90.306
						c10.121-44.575,11.302-99.971-15.608-157.347C525.476,242.201,466.439,201.909,443.9,185.1
						c-34.148-25.469-48.3-51.4-48.566-56.751c-10.203,20.905-41.066,92.536-3.316,154.226
						c35.367,57.794,91.076,74.928,130.082,128.001C593.955,508.21,508.455,614.345,508.455,614.345z"/>
				</g>
			</g>
		</g>
	</g>
</g>
</svg>