<?xml version="1.0" encoding="UTF-8" standalone="yes"?>

<svg
    id="3px-tiles"
    xmlns="http://www.w3.org/2000/svg"
    version="1.1"
    width="72"
    height="24">
    <defs>
        <symbol id="square_01">
            <rect 
                width="3" height="3"
                x="0" y="0"
                fill="#F8F8F8" fill-opacity="0.28" stroke="#020202" stroke-width="0.18" stroke-opacity="1">
            </rect>
        </symbol>

        <symbol id="square_02">
            <rect 
                width="3" height="3"
                x="0" y="0"
                fill="#626262" fill-opacity="0.18" stroke="#020202" stroke-width="0.18" stroke-opacity="1">
            </rect>
        </symbol>

        <symbol id="square_03">
            <rect 
                width="3" height="3"
                x="0" y="0"
                fill="#020202" fill-opacity="0.18" stroke="#020202" stroke-width="0.18" stroke-opacity="1">
            </rect>
        </symbol>
    </defs>

    <g>
        <use 
            width="3" height="3" 
            x="0" y="0" 
            href="#square_02">
        </use>
        <use 
            width="3" height="3" 
            x="3" y="0" 
            href="#square_01">
        </use>
        <use 
            width="3" height="3" 
            x="6" y="0" 
            href="#square_03">
        </use>
        <use 
            width="3" height="3" 
            x="9" y="0" 
            href="#square_01">
        </use>
        <use 
            width="3" height="3" 
            x="12" y="0" 
            href="#square_01">
        </use>
        <use 
            width="3" height="3" 
            x="15" y="0" 
            href="#square_01">
        </use>
        <use 
            width="3" height="3" 
            x="18" y="0" 
            href="#square_02">
        </use>
        <use 
            width="3" height="3" 
            x="21" y="0" 
            href="#square_03">
        </use>
        <use 
            width="3" height="3" 
            x="24" y="0" 
            href="#square_02">
        </use>
        <use 
            width="3" height="3" 
            x="27" y="0" 
            href="#square_01">
        </use>
        <use 
            width="3" height="3" 
            x="30" y="0" 
            href="#square_01">
        </use>
        <use 
            width="3" height="3" 
            x="33" y="0" 
            href="#square_01">
        </use>
        <use 
            width="3" height="3" 
            x="36" y="0" 
            href="#square_01">
        </use>
        <use 
            width="3" height="3" 
            x="39" y="0" 
            href="#square_01">
        </use>
        <use 
            width="3" height="3" 
            x="42" y="0" 
            href="#square_01">
        </use>
        <use 
            width="3" height="3" 
            x="45" y="0" 
            href="#square_02">
        </use>
        <use 
            width="3" height="3" 
            x="48" y="0" 
            href="#square_02">
        </use>
        <use 
            width="3" height="3" 
            x="51" y="0" 
            href="#square_03">
        </use>
        <use 
            width="3" height="3" 
            x="54" y="0" 
            href="#square_01">
        </use>
        <use 
            width="3" height="3" 
            x="57" y="0" 
            href="#square_01">
        </use>
        <use 
            width="3" height="3" 
            x="60" y="0" 
            href="#square_01">
        </use>
        <use 
            width="3" height="3" 
            x="63" y="0" 
            href="#square_02">
        </use>
        <use 
            width="3" height="3" 
            x="66" y="0" 
            href="#square_03">
        </use>
        <use 
            width="3" height="3" 
            x="69" y="0" 
            href="#square_03">
        </use>


        <use 
            width="3" height="3" 
            x="0" y="3" 
            href="#square_01">
        </use>
        <use 
            width="3" height="3" 
            x="3" y="3" 
            href="#square_01">
        </use>
        <use 
            width="3" height="3" 
            x="6" y="3" 
            href="#square_01">
        </use>
        <use 
            width="3" height="3" 
            x="9" y="3" 
            href="#square_01">
        </use>
        <use 
            width="3" height="3" 
            x="12" y="3" 
            href="#square_01">
        </use>
        <use 
            width="3" height="3" 
            x="15" y="3" 
            href="#square_01">
        </use>
        <use 
            width="3" height="3" 
            x="18" y="3" 
            href="#square_02">
        </use>
        <use 
            width="3" height="3" 
            x="21" y="3" 
            href="#square_02">
        </use>
        <use 
            width="3" height="3" 
            x="24" y="3" 
            href="#square_03">
        </use>
        <use 
            width="3" height="3" 
            x="27" y="3" 
            href="#square_01">
        </use>
        <use 
            width="3" height="3" 
            x="30" y="3" 
            href="#square_01">
        </use>
        <use 
            width="3" height="3" 
            x="33" y="3" 
            href="#square_02">
        </use>
        <use 
            width="3" height="3" 
            x="36" y="3" 
            href="#square_02">
        </use>
        <use 
            width="3" height="3" 
            x="39" y="3" 
            href="#square_02">
        </use>
        <use 
            width="3" height="3" 
            x="42" y="3" 
            href="#square_01">
        </use>
        <use 
            width="3" height="3" 
            x="45" y="3" 
            href="#square_01">
        </use>
        <use 
            width="3" height="3" 
            x="48" y="3" 
            href="#square_01">
        </use>
        <use 
            width="3" height="3" 
            x="51" y="3" 
            href="#square_01">
        </use>
        <use 
            width="3" height="3" 
            x="54" y="3" 
            href="#square_01">
        </use>
        <use 
            width="3" height="3" 
            x="57" y="3" 
            href="#square_03">
        </use>
        <use 
            width="3" height="3" 
            x="60" y="3" 
            href="#square_01">
        </use>
        <use 
            width="3" height="3" 
            x="63" y="3" 
            href="#square_01">
        </use>
        <use 
            width="3" height="3" 
            x="66" y="3" 
            href="#square_01">
        </use>
        <use 
            width="3" height="3" 
            x="69" y="3" 
            href="#square_03">
        </use>

        
        <use 
            width="3" height="3" 
            x="0" y="6" 
            href="#square_02">
        </use>
        <use 
            width="3" height="3" 
            x="3" y="6" 
            href="#square_02">
        </use>
        <use 
            width="3" height="3" 
            x="6" y="6" 
            href="#square_03">
        </use>
        <use 
            width="3" height="3" 
            x="9" y="6" 
            href="#square_01">
        </use>
        <use 
            width="3" height="3" 
            x="12" y="6" 
            href="#square_01">
        </use>
        <use 
            width="3" height="3" 
            x="15" y="6" 
            href="#square_01">
        </use>
        <use 
            width="3" height="3" 
            x="18" y="6" 
            href="#square_02">
        </use>
        <use 
            width="3" height="3" 
            x="21" y="6" 
            href="#square_03">
        </use>
        <use 
            width="3" height="3" 
            x="24" y="6" 
            href="#square_01">
        </use>
        <use 
            width="3" height="3" 
            x="27" y="6" 
            href="#square_01">
        </use>
        <use 
            width="3" height="3" 
            x="30" y="6" 
            href="#square_01">
        </use>
        <use 
            width="3" height="3" 
            x="33" y="6" 
            href="#square_01">
        </use>
        <use 
            width="3" height="3" 
            x="36" y="6" 
            href="#square_01">
        </use>
        <use 
            width="3" height="3" 
            x="39" y="6" 
            href="#square_01">
        </use>
        <use 
            width="3" height="3" 
            x="42" y="6" 
            href="#square_01">
        </use>
        <use 
            width="3" height="3" 
            x="45" y="6" 
            href="#square_02">
        </use>
        <use 
            width="3" height="3" 
            x="48" y="6" 
            href="#square_02">
        </use>
        <use 
            width="3" height="3" 
            x="51" y="6" 
            href="#square_01">
        </use>
        <use 
            width="3" height="3" 
            x="54" y="6" 
            href="#square_01">
        </use>
        <use 
            width="3" height="3" 
            x="57" y="6" 
            href="#square_01">
        </use>
        <use 
            width="3" height="3" 
            x="60" y="6" 
            href="#square_03">
        </use>
        <use 
            width="3" height="3" 
            x="63" y="6" 
            href="#square_01">
        </use>
        <use 
            width="3" height="3" 
            x="66" y="6" 
            href="#square_01">
        </use>
        <use 
            width="3" height="3" 
            x="69" y="6" 
            href="#square_02">
        </use>


        <use 
            width="3" height="3" 
            x="0" y="9" 
            href="#square_01">
        </use>
        <use 
            width="3" height="3" 
            x="3" y="9" 
            href="#square_03">
        </use>
        <use 
            width="3" height="3" 
            x="6" y="9" 
            href="#square_02">
        </use>
        <use 
            width="3" height="3" 
            x="9" y="9" 
            href="#square_02">
        </use>
        <use 
            width="3" height="3" 
            x="12" y="9" 
            href="#square_01">
        </use>
        <use 
            width="3" height="3" 
            x="15" y="9" 
            href="#square_01">
        </use>
        <use 
            width="3" height="3" 
            x="18" y="9" 
            href="#square_02">
        </use>
        <use 
            width="3" height="3" 
            x="21" y="9" 
            href="#square_03">
        </use>
        <use 
            width="3" height="3" 
            x="24" y="9" 
            href="#square_01">
        </use>
        <use 
            width="3" height="3" 
            x="27" y="9" 
            href="#square_02">
        </use>
        <use 
            width="3" height="3" 
            x="30" y="9" 
            href="#square_02">
        </use>
        <use 
            width="3" height="3" 
            x="33" y="9" 
            href="#square_01">
        </use>
        <use 
            width="3" height="3" 
            x="36" y="9" 
            href="#square_02">
        </use>
        <use 
            width="3" height="3" 
            x="39" y="9" 
            href="#square_03">
        </use>
        <use 
            width="3" height="3" 
            x="42" y="9" 
            href="#square_01">
        </use>
        <use 
            width="3" height="3" 
            x="45" y="9" 
            href="#square_02">
        </use>
        <use 
            width="3" height="3" 
            x="48" y="9" 
            href="#square_02">
        </use>
        <use 
            width="3" height="3" 
            x="51" y="9" 
            href="#square_03">
        </use>
        <use 
            width="3" height="3" 
            x="54" y="9" 
            href="#square_01">
        </use>
        <use 
            width="3" height="3" 
            x="57" y="9" 
            href="#square_03">
        </use>
        <use 
            width="3" height="3" 
            x="60" y="9" 
            href="#square_01">
        </use>
        <use 
            width="3" height="3" 
            x="63" y="9" 
            href="#square_01">
        </use>
        <use 
            width="3" height="3" 
            x="66" y="9" 
            href="#square_01">
        </use>
        <use 
            width="3" height="3" 
            x="69" y="9" 
            href="#square_01">
        </use>


        <use 
            width="3" height="3" 
            x="0" y="12" 
            href="#square_01">
        </use>
        <use 
            width="3" height="3" 
            x="3" y="12" 
            href="#square_02">
        </use>
        <use 
            width="3" height="3" 
            x="6" y="12" 
            href="#square_03">
        </use>
        <use 
            width="3" height="3" 
            x="9" y="12" 
            href="#square_02">
        </use>
        <use 
            width="3" height="3" 
            x="12" y="12" 
            href="#square_01">
        </use>
        <use 
            width="3" height="3" 
            x="15" y="12" 
            href="#square_01">
        </use>
        <use 
            width="3" height="3" 
            x="18" y="12" 
            href="#square_01">
        </use>
        <use 
            width="3" height="3" 
            x="21" y="12" 
            href="#square_02">
        </use>
        <use 
            width="3" height="3" 
            x="24" y="12" 
            href="#square_03">
        </use>
        <use 
            width="3" height="3" 
            x="27" y="12" 
            href="#square_01">
        </use>
        <use 
            width="3" height="3" 
            x="30" y="12" 
            href="#square_01">
        </use>
        <use 
            width="3" height="3" 
            x="33" y="12" 
            href="#square_02">
        </use>
        <use 
            width="3" height="3" 
            x="36" y="12" 
            href="#square_02">
        </use>
        <use 
            width="3" height="3" 
            x="39" y="12" 
            href="#square_02">
        </use>
        <use 
            width="3" height="3" 
            x="42" y="12" 
            href="#square_02">
        </use>
        <use 
            width="3" height="3" 
            x="45" y="12" 
            href="#square_03">
        </use>
        <use 
            width="3" height="3" 
            x="48" y="12" 
            href="#square_03">
        </use>
        <use 
            width="3" height="3" 
            x="51" y="12" 
            href="#square_03">
        </use>
        <use 
            width="3" height="3" 
            x="54" y="12" 
            href="#square_01">
        </use>
        <use 
            width="3" height="3" 
            x="57" y="12" 
            href="#square_01">
        </use>
        <use 
            width="3" height="3" 
            x="60" y="12" 
            href="#square_01">
        </use>
        <use 
            width="3" height="3" 
            x="63" y="12" 
            href="#square_02">
        </use>
        <use 
            width="3" height="3" 
            x="66" y="12" 
            href="#square_01">
        </use>
        <use 
            width="3" height="3" 
            x="69" y="12" 
            href="#square_02">
        </use>


        <use 
            width="3" height="3" 
            x="0" y="15" 
            href="#square_03">
        </use>
        <use 
            width="3" height="3" 
            x="3" y="15" 
            href="#square_01">
        </use>
        <use 
            width="3" height="3" 
            x="6" y="15" 
            href="#square_01">
        </use>
        <use 
            width="3" height="3" 
            x="9" y="15" 
            href="#square_02">
        </use>
        <use 
            width="3" height="3" 
            x="12" y="15" 
            href="#square_02">
        </use>
        <use 
            width="3" height="3" 
            x="15" y="15" 
            href="#square_02">
        </use>
        <use 
            width="3" height="3" 
            x="18" y="15" 
            href="#square_01">
        </use>
        <use 
            width="3" height="3" 
            x="21" y="15" 
            href="#square_01">
        </use>
        <use 
            width="3" height="3" 
            x="24" y="15" 
            href="#square_03">
        </use>
        <use 
            width="3" height="3" 
            x="27" y="15" 
            href="#square_01">
        </use>
        <use 
            width="3" height="3" 
            x="30" y="15" 
            href="#square_01">
        </use>
        <use 
            width="3" height="3" 
            x="33" y="15" 
            href="#square_01">
        </use>
        <use 
            width="3" height="3" 
            x="36" y="15" 
            href="#square_01">
        </use>
        <use 
            width="3" height="3" 
            x="39" y="15" 
            href="#square_03">
        </use>
        <use 
            width="3" height="3" 
            x="42" y="15" 
            href="#square_01">
        </use>
        <use 
            width="3" height="3" 
            x="45" y="15" 
            href="#square_01">
        </use>
        <use 
            width="3" height="3" 
            x="48" y="15" 
            href="#square_01">
        </use>
        <use 
            width="3" height="3" 
            x="51" y="15" 
            href="#square_03">
        </use>
        <use 
            width="3" height="3" 
            x="54" y="15" 
            href="#square_01">
        </use>
        <use 
            width="3" height="3" 
            x="57" y="15" 
            href="#square_02">
        </use>
        <use 
            width="3" height="3" 
            x="60" y="15" 
            href="#square_01">
        </use>
        <use 
            width="3" height="3" 
            x="63" y="15" 
            href="#square_01">
        </use>
        <use 
            width="3" height="3" 
            x="66" y="15" 
            href="#square_01">
        </use>
        <use 
            width="3" height="3" 
            x="69" y="15" 
            href="#square_02">
        </use>


        <use 
            width="3" height="3" 
            x="0" y="18" 
            href="#square_01">
        </use>
        <use 
            width="3" height="3" 
            x="3" y="18" 
            href="#square_01">
        </use>
        <use 
            width="3" height="3" 
            x="6" y="18" 
            href="#square_01">
        </use>
        <use 
            width="3" height="3" 
            x="9" y="18" 
            href="#square_02">
        </use>
        <use 
            width="3" height="3" 
            x="12" y="18" 
            href="#square_01">
        </use>
        <use 
            width="3" height="3" 
            x="15" y="18" 
            href="#square_02">
        </use>
        <use 
            width="3" height="3" 
            x="18" y="18" 
            href="#square_02">
        </use>
        <use 
            width="3" height="3" 
            x="21" y="18" 
            href="#square_03">
        </use>
        <use 
            width="3" height="3" 
            x="24" y="18" 
            href="#square_03">
        </use>
        <use 
            width="3" height="3" 
            x="27" y="18" 
            href="#square_01">
        </use>
        <use 
            width="3" height="3" 
            x="30" y="18" 
            href="#square_02">
        </use>
        <use 
            width="3" height="3" 
            x="33" y="18" 
            href="#square_02">
        </use>
        <use 
            width="3" height="3" 
            x="36" y="18" 
            href="#square_01">
        </use>
        <use 
            width="3" height="3" 
            x="39" y="18" 
            href="#square_03">
        </use>
        <use 
            width="3" height="3" 
            x="42" y="18" 
            href="#square_01">
        </use>
        <use 
            width="3" height="3" 
            x="45" y="18" 
            href="#square_03">
        </use>
        <use 
            width="3" height="3" 
            x="48" y="18" 
            href="#square_01">
        </use>
        <use 
            width="3" height="3" 
            x="51" y="18" 
            href="#square_02">
        </use>
        <use 
            width="3" height="3" 
            x="54" y="18" 
            href="#square_01">
        </use>
        <use 
            width="3" height="3" 
            x="57" y="18" 
            href="#square_01">
        </use>
        <use 
            width="3" height="3" 
            x="60" y="18" 
            href="#square_01">
        </use>
        <use 
            width="3" height="3" 
            x="63" y="18" 
            href="#square_02">
        </use>
        <use 
            width="3" height="3" 
            x="66" y="18" 
            href="#square_03">
        </use>
        <use 
            width="3" height="3" 
            x="69" y="18" 
            href="#square_02">
        </use>

        <use 
            width="3" height="3" 
            x="0" y="21" 
            href="#square_01">
        </use>
        <use 
            width="3" height="3" 
            x="3" y="21" 
            href="#square_01">
        </use>
        <use 
            width="3" height="3" 
            x="6" y="21" 
            href="#square_01">
        </use>
        <use 
            width="3" height="3" 
            x="9" y="21" 
            href="#square_01">
        </use>
        <use 
            width="3" height="3" 
            x="12" y="21" 
            href="#square_01">
        </use>
        <use 
            width="3" height="3" 
            x="15" y="21" 
            href="#square_01">
        </use>
        <use 
            width="3" height="3" 
            x="18" y="21" 
            href="#square_02">
        </use>
        <use 
            width="3" height="3" 
            x="21" y="21" 
            href="#square_03">
        </use>
        <use 
            width="3" height="3" 
            x="24" y="21" 
            href="#square_02">
        </use>
        <use 
            width="3" height="3" 
            x="27" y="21" 
            href="#square_01">
        </use>
        <use 
            width="3" height="3" 
            x="30" y="21" 
            href="#square_01">
        </use>
        <use 
            width="3" height="3" 
            x="33" y="21" 
            href="#square_01">
        </use>
        <use 
            width="3" height="3" 
            x="36" y="21" 
            href="#square_01">
        </use>
        <use 
            width="3" height="3" 
            x="39" y="21" 
            href="#square_03">
        </use>
        <use 
            width="3" height="3" 
            x="42" y="21" 
            href="#square_01">
        </use>
        <use 
            width="3" height="3" 
            x="45" y="21" 
            href="#square_01">
        </use>
        <use 
            width="3" height="3" 
            x="48" y="21" 
            href="#square_01">
        </use>
        <use 
            width="3" height="3" 
            x="51" y="21" 
            href="#square_03">
        </use>
        <use 
            width="3" height="3" 
            x="54" y="21" 
            href="#square_02">
        </use>
        <use 
            width="3" height="3" 
            x="57" y="21" 
            href="#square_01">
        </use>
        <use 
            width="3" height="3" 
            x="60" y="21" 
            href="#square_01">
        </use>
        <use 
            width="3" height="3" 
            x="63" y="21" 
            href="#square_01">
        </use>
        <use 
            width="3" height="3" 
            x="66" y="21" 
            href="#square_03">
        </use>
        <use 
            width="3" height="3" 
            x="69" y="21" 
            href="#square_01">
        </use>


        <use 
            width="3" height="3" 
            x="0" y="24" 
            href="#square_03">
        </use>
        <use 
            width="3" height="3" 
            x="3" y="24" 
            href="#square_03">
        </use>
        <use 
            width="3" height="3" 
            x="6" y="24" 
            href="#square_03">
        </use>
        <use 
            width="3" height="3" 
            x="9" y="24" 
            href="#square_02">
        </use>
        <use 
            width="3" height="3" 
            x="12" y="24" 
            href="#square_01">
        </use>
        <use 
            width="3" height="3" 
            x="15" y="24" 
            href="#square_02">
        </use>
        <use 
            width="3" height="3" 
            x="18" y="24" 
            href="#square_01">
        </use>
        <use 
            width="3" height="3" 
            x="21" y="24" 
            href="#square_03">
        </use>
        <use 
            width="3" height="3" 
            x="24" y="24" 
            href="#square_03">
        </use>
        <use 
            width="3" height="3" 
            x="27" y="24" 
            href="#square_01">
        </use>
        <use 
            width="3" height="3" 
            x="30" y="24" 
            href="#square_02">
        </use>
        <use 
            width="3" height="3" 
            x="33" y="24" 
            href="#square_01">
        </use>
        <use 
            width="3" height="3" 
            x="36" y="24" 
            href="#square_01">
        </use>
        <use 
            width="3" height="3" 
            x="39" y="24" 
            href="#square_02">
        </use>
        <use 
            width="3" height="3" 
            x="42" y="24" 
            href="#square_01">
        </use>
        <use 
            width="3" height="3" 
            x="45" y="24" 
            href="#square_01">
        </use>
        <use 
            width="3" height="3" 
            x="48" y="24" 
            href="#square_01">
        </use>
        <use 
            width="3" height="3" 
            x="51" y="24" 
            href="#square_03">
        </use>
        <use 
            width="3" height="3" 
            x="54" y="24" 
            href="#square_01">
        </use>
        <use 
            width="3" height="3" 
            x="57" y="24" 
            href="#square_01">
        </use>
        <use 
            width="3" height="3" 
            x="60" y="24" 
            href="#square_02">
        </use>
        <use 
            width="3" height="3" 
            x="63" y="24" 
            href="#square_02">
        </use>
        <use 
            width="3" height="3" 
            x="66" y="24" 
            href="#square_01">
        </use>
        <use 
            width="3" height="3" 
            x="69" y="24" 
            href="#square_03">
        </use>
    </g>
</svg>