<?xml version="1.0" encoding="UTF-8" standalone="no"?>

<svg
    xmlns="http://www.w3.org/2000/svg"
    width="16"
    height="16"
    version="1.1">
    <style type="text/css">
        path {
            fill: none;
            stroke: #020202;
            stroke-width: 0.6;
            stroke-opacity: 1;
        }
    </style>


    <path
       d="m 1,-1 -2,2">
    </path>
    <path
       d="m 3,-1 -4,4">
    </path>
    <path
       d="m 5,-1 -6,6">
    </path>
    <path
       d="m 7,-1 -8,8">
    </path>
    <path
       d="m 9,-1 -10,10">
    </path>
    <path
       d="m 11,-1 -12,12">
    </path>
    <path
       d="m 13,-1 -14,14">
    </path>
    <path
       d="m 15,-1 -16,16">
    </path>
     <path
        d="m 17,-1 -18,18">
    </path>
    <path
       d="m 17,1 -16,16">
    </path>
    <path
       d="m 17,3 -14,14">
    </path>
    <path
       d="m 17,5 -12,12">
    </path>
    <path
       d="m 17,7 -10,10">
    </path>
    <path
       d="m 17,9 -8,8">
    </path>
    <path
       d="m 17,11 -6,6">
    </path>
    <path
       d="m 17,13 -4,4">
    </path>
    <path
       d="m 17,15 -2,2">
    </path>
</svg>