<?xml version="1.0" encoding="UTF-8"?>

<svg
	version="1.1"
	xmlns="http://www.w3.org/2000/svg"
	width="16"
	height="16">
	<circle
		cx="8" cy="8"
		r="6.5"
		fill="none" stroke="#000000" stroke-width="1" stroke-opacity="0.18">
	</circle>
	<circle
		cx="8" cy="8"
		r="6"
		fill="#F8F8F8" fill-opacity="0.88">
	</circle>
	<path
		d="m 5,4.92186 0.75,0 c 0.008,-9e-5 0.0156,-3.5e-4 0.0234,0 0.19122,0.008 0.3824,0.0964 0.51563,0.23437 L 8,6.86717 9.73438,5.15623 C 9.9336,4.98336 10.06938,4.92711 10.25,4.92186 l 0.75,0 0,0.75 c 0,0.21485 -0.0257,0.41298 -0.1875,0.5625 l -1.71093,1.71093 1.6875,1.6875 C 10.93021,9.77392 11,9.97288 11,10.17186 l 0,0.75 -0.75,0 c -0.19897,-1e-5 -0.39793,-0.0698 -0.53906,-0.21094 L 8,8.99998 6.28907,10.71092 C 6.14794,10.85206 5.94897,10.92186 5.75,10.92186 l -0.75,0 0,-0.75 C 5,9.97289 5.0698,9.77392 5.21094,9.63279 L 6.92188,7.94529 5.21094,6.23436 C 5.05289,6.08838 4.98357,5.88242 5,5.67186 l 0,-0.75 z"
		fill="#BAC0B6" fill-opacity="0.8" stroke="none">
	</path>
</svg>