<?xml version="1.0" encoding="UTF-8"?>

<svg
	version="1.1"
	xmlns="http://www.w3.org/2000/svg"
	width="16"
	height="16">
	<circle
		cx="8" cy="8"
		r="7"
		fill="#F21706" fill-opacity="1" stroke="none">
	</circle>
	<path
		d="m 5,5.02 0.75,0 c 0.00778,-9e-5 0.015592,-3.45e-4 0.023437,0 C 5.96583,5.008595 6.157019,5.09663 6.290241,5.23457 L 8.00118,6.945508 9.735555,5.23457 C 9.934774,5.061695 10.070559,5.005445 10.25118,5.000195 l 0.75,0 0,0.75 c 0,0.2148525 -0.02576,0.412988 -0.1875,0.5625 l -1.710938,1.710938 1.6875,1.6875 c 0.141141,0.141127 0.210932,0.340087 0.210938,0.539062 l 0,0.75 -0.75,0 c -0.198976,-7e-6 -0.39794,-0.06982 -0.539063,-0.210937 L 8.00118,9.07832 6.290242,10.789258 C 6.149119,10.9304 5.9501473,11.000195 5.7511798,11.000195 l -0.75,0 0,-0.75 C 5.0011775,10.051228 5.0709748,9.85226 5.2121173,9.711133 L 6.923055,8.023633 5.2121173,6.312695 C 5.0540607,6.166723 4.9847473,5.9607575 5.0011798,5.750195 l 0,-0.75 z"
		fill="#F8F8F8" fill-opacity="1" stroke="none">
	</path>
</svg>