<?xml version="1.0" encoding="UTF-8"?>

<svg
   xmlns="http://www.w3.org/2000/svg"
   version="1.1"
   width="16"
   height="16">
  <path
     d="m 5.002,5 h 0.75 C 5.76,5 5.768,5 5.776,5 5.967,5.008 6.158,5.096 6.292,5.234 L 8.003,6.945 9.737,5.234 C 9.936,5.062 10.072,5.005 10.252,5 h 0.75 v 0.75 c 0,0.215 -0.025,0.413 -0.188,0.563 l -1.71,1.71 1.688,1.688 c 0.142,0.141 0.211,0.34 0.211,0.539 V 11 h -0.75 C 10.054,11 9.856,10.93 9.714,10.789 L 8.004,9.078 6.293,10.789 C 6.15,10.93 5.951,11 5.752,11 h -0.75 v -0.75 c 0,-0.199 0.07,-0.398 0.211,-0.539 L 6.924,8.023 5.213,6.313 C 5.055,6.167 4.986,5.96 5.002,5.75 V 5 l 0,0 z"
     fill="#bac0b6" fill-opacity="1"/>
</svg>